<?xml version="1.0" encoding="UTF-8"?>
<svg width="28px" height="33px" viewBox="0 0 28 33" version="1.1" xmlns="http://www.w3.org/2000/svg" xmlns:xlink="http://www.w3.org/1999/xlink">
    <!-- Generator: Sketch 52.4 (67378) - http://www.bohemiancoding.com/sketch -->
    <title>Fill 1</title>
    <desc>Created with Sketch.</desc>
    <g id="Page-1" stroke="none" stroke-width="1" fill="none" fill-rule="evenodd">
        <g id="dpaa" transform="translate(-126.000000, -328.000000)" fill="#FFFFFF">
            <g id="我的藏品" transform="translate(15.000000, 313.000000)">
                <path d="M136.996849,36.0468434 C136.641713,35.8245591 136.193934,35.8245591 135.838799,36.0468434 L125.633619,42.4537955 C125.25422,42.7254763 124.746883,42.7254763 124.366381,42.4537955 L114.161201,36.0468434 C113.806066,35.8245591 113.358287,35.8245591 113.003151,36.0468434 L111.46901,37.0100754 C110.843663,37.4568893 110.843663,38.3999136 111.46901,38.8478502 L124.366381,46.9443875 C124.746883,47.2160684 125.25422,47.2160684 125.633619,46.9443875 L138.53099,38.8478502 C139.156337,38.3999136 139.156337,37.4568893 138.53099,37.0100754 L136.996849,36.0468434 Z M136.996849,29.072954 C136.641713,28.8506697 136.193934,28.8506697 135.838799,29.072954 L125.633619,35.4799062 C125.25422,35.751587 124.746883,35.751587 124.366381,35.4799062 L114.161201,29.072954 C113.806066,28.8506697 113.358287,28.8506697 113.003151,29.072954 L111.46901,30.036186 C110.843663,30.4829999 110.843663,31.4260242 111.46901,31.8739608 L124.366381,39.9704982 C124.746883,40.242179 125.25422,40.242179 125.633619,39.9704982 L138.53099,31.8739608 C139.156337,31.4260242 139.156337,30.4829999 138.53099,30.036186 L136.996849,29.072954 Z M138.53099,25.1380728 L125.633619,33.2346102 C125.25422,33.506291 124.746883,33.506291 124.366381,33.2346102 L111.46901,25.1380728 C110.843663,24.6901362 110.843663,23.7471119 111.46901,23.300298 L124.366381,15.2037606 C124.746883,14.9320798 125.25422,14.9320798 125.633619,15.2037606 L138.53099,23.300298 C139.156337,23.7471119 139.156337,24.6901362 138.53099,25.1380728 Z" id="Fill-1"></path>
            </g>
        </g>
    </g>
</svg>