<?xml version="1.0" encoding="UTF-8"?>
<svg width="28px" height="28px" viewBox="0 0 28 28" version="1.1" xmlns="http://www.w3.org/2000/svg" xmlns:xlink="http://www.w3.org/1999/xlink">
    <!-- Generator: Sketch 52.4 (67378) - http://www.bohemiancoding.com/sketch -->
    <title>Fill 1</title>
    <desc>Created with Sketch.</desc>
    <g id="Page-1" stroke="none" stroke-width="1" fill="none" fill-rule="evenodd">
        <g id="dpaa" transform="translate(-305.000000, -331.000000)" fill="#FFFFFF">
            <g id="精选DApp" transform="translate(195.000000, 313.000000)">
                <path d="M138,45.0606233 L138,38.5394706 C138,38.0199953 137.579159,37.6000939 137.060623,37.6000939 L130.539471,37.6000939 C130.020935,37.6000939 129.600094,38.0199953 129.600094,38.5394706 L129.600094,45.0606233 C129.600094,45.5791593 130.020935,46 130.539471,46 L137.060623,46 C137.579159,46 138,45.5791593 138,45.0606233 M128.200423,45.0606233 L128.200423,38.5394706 C128.200423,38.0199953 127.779582,37.6000939 127.261046,37.6000939 L120.738954,37.6000939 C120.220418,37.6000939 119.799577,38.0199953 119.799577,38.5394706 L119.799577,45.0606233 C119.799577,45.5791593 120.220418,46 120.738954,46 L127.261046,46 C127.779582,46 128.200423,45.5791593 128.200423,45.0606233 M118.399906,45.0606233 L118.399906,38.5394706 C118.399906,38.0199953 117.980005,37.6000939 117.460529,37.6000939 L110.939377,37.6000939 C110.420841,37.6000939 110,38.0199953 110,38.5394706 L110,45.0606233 C110,45.5791593 110.420841,46 110.939377,46 L117.460529,46 C117.980005,46 118.399906,45.5791593 118.399906,45.0606233 M138,35.2601067 L138,28.7389539 C138,28.220418 137.579159,27.7995773 137.060623,27.7995773 L130.539471,27.7995773 C130.020935,27.7995773 129.600094,28.220418 129.600094,28.7389539 L129.600094,35.2601067 C129.600094,35.779582 130.020935,36.1994833 130.539471,36.1994833 L137.060623,36.1994833 C137.579159,36.1994833 138,35.779582 138,35.2601067 M128.200423,35.2601067 L128.200423,28.7389539 C128.200423,28.220418 127.779582,27.7995773 127.261046,27.7995773 L120.738954,27.7995773 C120.220418,27.7995773 119.799577,28.220418 119.799577,28.7389539 L119.799577,35.2601067 C119.799577,35.779582 120.220418,36.1994833 120.738954,36.1994833 L127.261046,36.1994833 C127.779582,36.1994833 128.200423,35.779582 128.200423,35.2601067 M118.399906,35.2601067 L118.399906,28.7389539 C118.399906,28.220418 117.980005,27.7995773 117.460529,27.7995773 L110.939377,27.7995773 C110.420841,27.7995773 110,28.220418 110,28.7389539 L110,35.2601067 C110,35.779582 110.420841,36.1994833 110.939377,36.1994833 L117.460529,36.1994833 C117.980005,36.1994833 118.399906,35.779582 118.399906,35.2601067 M138,25.4605294 L138,18.9393767 C138,18.4208407 137.579159,18 137.060623,18 L130.539471,18 C130.020935,18 129.600094,18.4208407 129.600094,18.9393767 L129.600094,25.4605294 C129.600094,25.9790653 130.020935,26.3999061 130.539471,26.3999061 L137.060623,26.3999061 C137.579159,26.3999061 138,25.9790653 138,25.4605294 M128.200423,25.4605294 L128.200423,18.9393767 C128.200423,18.4208407 127.779582,18 127.261046,18 L120.738954,18 C120.220418,18 119.799577,18.4208407 119.799577,18.9393767 L119.799577,25.4605294 C119.799577,25.9790653 120.220418,26.3999061 120.738954,26.3999061 L127.261046,26.3999061 C127.779582,26.3999061 128.200423,25.9790653 128.200423,25.4605294 M117.460529,26.3999061 L110.939377,26.3999061 C110.420841,26.3999061 110,25.9790653 110,25.4605294 L110,18.9393767 C110,18.4208407 110.420841,18 110.939377,18 L117.460529,18 C117.980005,18 118.399906,18.4208407 118.399906,18.9393767 L118.399906,25.4605294 C118.399906,25.9790653 117.980005,26.3999061 117.460529,26.3999061" id="Fill-1"></path>
            </g>
        </g>
    </g>
</svg>