<?xml version="1.0" encoding="UTF-8"?>
<svg width="22px" height="20px" viewBox="0 0 22 20" version="1.1" xmlns="http://www.w3.org/2000/svg" xmlns:xlink="http://www.w3.org/1999/xlink">
    <!-- Generator: Sketch 51.3 (57544) - http://www.bohemiancoding.com/sketch -->
    <title>Shape</title>
    <desc>Created with Sketch.</desc>
    <defs></defs>
    <g id="Page-1" stroke="none" stroke-width="1" fill="none" fill-rule="evenodd">
        <g id="dapp详情" transform="translate(-150.000000, -236.000000)" fill="#E9EBF0" fill-rule="nonzero">
            <g id="Group" transform="translate(124.000000, 236.000000)">
                <g id="星星-copy" transform="translate(26.802244, 0.000000)">
                    <path d="M20.5701826,7.41160117 C20.457397,7.0656576 20.1561407,6.81339172 19.7947816,6.76175835 L13.8356946,5.90095635 L11.1703926,0.53256131 C11.0086342,0.206533472 10.6747295,0 10.3089183,0 C9.94310705,0 9.60920229,0.206533472 9.44744398,0.53256131 L6.78214196,5.90095635 L0.822312955,6.76175835 C0.46021179,6.81412934 0.159697504,7.0656576 0.046911895,7.41160117 C-0.0658737137,7.75754474 0.0283616304,8.13668118 0.290291367,8.3904223 L4.60285688,12.569037 L3.58481836,18.4692557 C3.52323148,18.8277388 3.67089159,19.18991 3.96695381,19.4038197 C4.26301603,19.6177294 4.65479762,19.6457589 4.97905625,19.4761064 L10.3096603,16.6901174 L15.6395223,19.4761064 C15.7797623,19.5491308 15.9333585,19.5860117 16.0862127,19.5860117 C16.2850715,19.5860117 16.4839303,19.5247893 16.6508827,19.4038197 C16.946945,19.18991 17.0946051,18.8277388 17.0330182,18.4692557 L16.0149797,12.569037 L20.3275452,8.3904223 C20.5887329,8.13668118 20.6829682,7.75754474 20.5701826,7.41160117 Z" id="Shape"></path>
                </g>
            </g>
        </g>
    </g>
</svg>