<?xml version="1.0" encoding="UTF-8"?>
<svg width="375px" height="115px" viewBox="0 0 375 115" version="1.1" xmlns="http://www.w3.org/2000/svg" xmlns:xlink="http://www.w3.org/1999/xlink">
    <!-- Generator: Sketch 49.2 (51160) - http://www.bohemiancoding.com/sketch -->
    <title>Group</title>
    <desc>Created with Sketch.</desc>
    <defs>
        <linearGradient x1="90.1388271%" y1="19.5676416%" x2="0%" y2="19.5676416%" id="linearGradient-1">
            <stop stop-color="#2247D9" offset="5.10801977%"></stop>
            <stop stop-color="#2764FE" offset="100%"></stop>
        </linearGradient>
        <rect id="path-2" x="0" y="0" width="375" height="160"></rect>
        <linearGradient x1="93.5045782%" y1="63.9644677%" x2="41.80764%" y2="24.7080158%" id="linearGradient-4">
            <stop stop-color="#302BE4" offset="0%"></stop>
            <stop stop-color="#2C68FF" offset="100%"></stop>
        </linearGradient>
        <linearGradient x1="156.848788%" y1="61.211877%" x2="10.3868527%" y2="43.1898236%" id="linearGradient-5">
            <stop stop-color="#2D4EF3" offset="0%"></stop>
            <stop stop-color="#2559F0" offset="100%"></stop>
        </linearGradient>
    </defs>
    <g id="Page-1" stroke="none" stroke-width="1" fill="none" fill-rule="evenodd">
        <g id="Dapps01-Copy">
            <g id="Group" transform="translate(-26.000000, -73.000000)">
                <g id="Path-20" transform="translate(26.000000, 27.000000)">
                    <mask id="mask-3" fill="white">
                        <use xlink:href="#path-2"></use>
                    </mask>
                    <use id="Mask" stroke="#797979" fill="url(#linearGradient-1)" xlink:href="#path-2"></use>
                    <path d="M-9,131.81335 C16.9845404,162.171685 63.3738589,165.539229 130.167956,141.915982 C230.359101,106.481111 208.848442,46.6949696 344.700903,70.414632 C435.26921,86.2277403 457.792169,96.3859455 412.26978,100.889247 L395.374444,205.034005 L-9,205.034005 L-9,131.81335 Z" fill="url(#linearGradient-4)" mask="url(#mask-3)"></path>
                </g>
                <path d="M25.9717631,118.144424 C79.2855215,136.413385 116.765635,129.283911 138.412103,96.7560018 C170.881805,47.9641374 168.758479,33.759902 161.604748,18.6137679 C156.835593,8.51634523 102.967344,19.5792351 0,51.8024375 L25.9717631,118.144424 Z" id="Path-19" fill="url(#linearGradient-5)"></path>
            </g>
        </g>
    </g>
</svg>